<svg width="123" height="123" viewBox="0 0 123 123" fill="none" xmlns="http://www.w3.org/2000/svg">
<circle cx="61.5" cy="61.5" r="61.5" fill="#163258" fill-opacity="0.1"/>
<path d="M69.9933 53.88H62.3933V61.28H60.5933V53.88H52.9933V52.16H60.5933V44.72H62.3933V52.16H69.9933V53.88Z" fill="#979797"/>
<path d="M69.9933 53.88H62.3933V61.28H60.5933V53.88H52.9933V52.16H60.5933V44.72H62.3933V52.16H69.9933V53.88Z" fill="black" fill-opacity="0.2"/>
<path d="M40.51 76.25H36.79L36.02 78H34.99L38.16 71H39.15L42.33 78H41.28L40.51 76.25ZM40.16 75.45L38.65 72.02L37.14 75.45H40.16ZM48.1854 70.58V78H47.2654V77.16C47.0521 77.4533 46.7821 77.6767 46.4554 77.83C46.1287 77.9833 45.7687 78.06 45.3754 78.06C44.8621 78.06 44.4021 77.9467 43.9954 77.72C43.5887 77.4933 43.2687 77.1767 43.0354 76.77C42.8087 76.3567 42.6954 75.8833 42.6954 75.35C42.6954 74.8167 42.8087 74.3467 43.0354 73.94C43.2687 73.5333 43.5887 73.2167 43.9954 72.99C44.4021 72.7633 44.8621 72.65 45.3754 72.65C45.7554 72.65 46.1054 72.7233 46.4254 72.87C46.7454 73.01 47.0121 73.22 47.2254 73.5V70.58H48.1854ZM45.4554 77.22C45.7887 77.22 46.0921 77.1433 46.3654 76.99C46.6387 76.83 46.8521 76.61 47.0054 76.33C47.1587 76.0433 47.2354 75.7167 47.2354 75.35C47.2354 74.9833 47.1587 74.66 47.0054 74.38C46.8521 74.0933 46.6387 73.8733 46.3654 73.72C46.0921 73.5667 45.7887 73.49 45.4554 73.49C45.1154 73.49 44.8087 73.5667 44.5354 73.72C44.2687 73.8733 44.0554 74.0933 43.8954 74.38C43.7421 74.66 43.6654 74.9833 43.6654 75.35C43.6654 75.7167 43.7421 76.0433 43.8954 76.33C44.0554 76.61 44.2687 76.83 44.5354 76.99C44.8087 77.1433 45.1154 77.22 45.4554 77.22ZM55.0018 70.58V78H54.0818V77.16C53.8685 77.4533 53.5985 77.6767 53.2718 77.83C52.9451 77.9833 52.5851 78.06 52.1918 78.06C51.6785 78.06 51.2185 77.9467 50.8118 77.72C50.4051 77.4933 50.0851 77.1767 49.8518 76.77C49.6251 76.3567 49.5118 75.8833 49.5118 75.35C49.5118 74.8167 49.6251 74.3467 49.8518 73.94C50.0851 73.5333 50.4051 73.2167 50.8118 72.99C51.2185 72.7633 51.6785 72.65 52.1918 72.65C52.5718 72.65 52.9218 72.7233 53.2418 72.87C53.5618 73.01 53.8285 73.22 54.0418 73.5V70.58H55.0018ZM52.2718 77.22C52.6051 77.22 52.9085 77.1433 53.1818 76.99C53.4551 76.83 53.6685 76.61 53.8218 76.33C53.9751 76.0433 54.0518 75.7167 54.0518 75.35C54.0518 74.9833 53.9751 74.66 53.8218 74.38C53.6685 74.0933 53.4551 73.8733 53.1818 73.72C52.9085 73.5667 52.6051 73.49 52.2718 73.49C51.9318 73.49 51.6251 73.5667 51.3518 73.72C51.0851 73.8733 50.8718 74.0933 50.7118 74.38C50.5585 74.66 50.4818 74.9833 50.4818 75.35C50.4818 75.7167 50.5585 76.0433 50.7118 76.33C50.8718 76.61 51.0851 76.83 51.3518 76.99C51.6251 77.1433 51.9318 77.22 52.2718 77.22ZM62.3138 72.65C62.8271 72.65 63.2871 72.7633 63.6938 72.99C64.1004 73.2167 64.4171 73.5333 64.6438 73.94C64.8771 74.3467 64.9938 74.8167 64.9938 75.35C64.9938 75.8833 64.8771 76.3567 64.6438 76.77C64.4171 77.1767 64.1004 77.4933 63.6938 77.72C63.2871 77.9467 62.8271 78.06 62.3138 78.06C61.9338 78.06 61.5838 77.9867 61.2638 77.84C60.9504 77.6933 60.6838 77.48 60.4638 77.2V79.94H59.5038V72.7H60.4238V73.54C60.6371 73.2467 60.9071 73.0267 61.2337 72.88C61.5604 72.7267 61.9204 72.65 62.3138 72.65ZM62.2338 77.22C62.5738 77.22 62.8771 77.1433 63.1438 76.99C63.4171 76.83 63.6304 76.61 63.7838 76.33C63.9438 76.0433 64.0238 75.7167 64.0238 75.35C64.0238 74.9833 63.9438 74.66 63.7838 74.38C63.6304 74.0933 63.4171 73.8733 63.1438 73.72C62.8771 73.5667 62.5738 73.49 62.2338 73.49C61.9004 73.49 61.5971 73.57 61.3238 73.73C61.0571 73.8833 60.8438 74.1 60.6838 74.38C60.5304 74.66 60.4538 74.9833 60.4538 75.35C60.4538 75.7167 60.5304 76.0433 60.6838 76.33C60.8371 76.61 61.0504 76.83 61.3238 76.99C61.5971 77.1433 61.9004 77.22 62.2338 77.22ZM69.1502 72.65C69.8235 72.65 70.3568 72.8467 70.7502 73.24C71.1502 73.6267 71.3502 74.1967 71.3502 74.95V78H70.3902V75.06C70.3902 74.5467 70.2668 74.16 70.0202 73.9C69.7735 73.64 69.4202 73.51 68.9602 73.51C68.4402 73.51 68.0302 73.6633 67.7302 73.97C67.4302 74.27 67.2802 74.7033 67.2802 75.27V78H66.3202V70.58H67.2802V73.45C67.4802 73.1967 67.7402 73 68.0602 72.86C68.3868 72.72 68.7502 72.65 69.1502 72.65ZM75.4261 78.06C74.8994 78.06 74.4261 77.9433 74.0061 77.71C73.5861 77.4767 73.2561 77.1567 73.0161 76.75C72.7828 76.3367 72.6661 75.87 72.6661 75.35C72.6661 74.83 72.7828 74.3667 73.0161 73.96C73.2561 73.5467 73.5861 73.2267 74.0061 73C74.4261 72.7667 74.8994 72.65 75.4261 72.65C75.9528 72.65 76.4228 72.7667 76.8361 73C77.2561 73.2267 77.5828 73.5467 77.8161 73.96C78.0561 74.3667 78.1761 74.83 78.1761 75.35C78.1761 75.87 78.0561 76.3367 77.8161 76.75C77.5828 77.1567 77.2561 77.4767 76.8361 77.71C76.4228 77.9433 75.9528 78.06 75.4261 78.06ZM75.4261 77.22C75.7661 77.22 76.0694 77.1433 76.3361 76.99C76.6094 76.83 76.8228 76.61 76.9761 76.33C77.1294 76.0433 77.2061 75.7167 77.2061 75.35C77.2061 74.9833 77.1294 74.66 76.9761 74.38C76.8228 74.0933 76.6094 73.8733 76.3361 73.72C76.0694 73.5667 75.7661 73.49 75.4261 73.49C75.0861 73.49 74.7794 73.5667 74.5061 73.72C74.2394 73.8733 74.0261 74.0933 73.8661 74.38C73.7128 74.66 73.6361 74.9833 73.6361 75.35C73.6361 75.7167 73.7128 76.0433 73.8661 76.33C74.0261 76.61 74.2394 76.83 74.5061 76.99C74.7794 77.1433 75.0861 77.22 75.4261 77.22ZM82.4838 77.69C82.3438 77.81 82.1704 77.9033 81.9638 77.97C81.7571 78.03 81.5438 78.06 81.3238 78.06C80.7904 78.06 80.3771 77.9167 80.0838 77.63C79.7904 77.3433 79.6438 76.9333 79.6438 76.4V73.49H78.7438V72.7H79.6438V71.54H80.6038V72.7H82.1238V73.49H80.6038V76.36C80.6038 76.6467 80.6738 76.8667 80.8138 77.02C80.9604 77.1733 81.1671 77.25 81.4338 77.25C81.7271 77.25 81.9771 77.1667 82.1838 77L82.4838 77.69ZM85.7386 78.06C85.2119 78.06 84.7386 77.9433 84.3186 77.71C83.8986 77.4767 83.5686 77.1567 83.3286 76.75C83.0953 76.3367 82.9786 75.87 82.9786 75.35C82.9786 74.83 83.0953 74.3667 83.3286 73.96C83.5686 73.5467 83.8986 73.2267 84.3186 73C84.7386 72.7667 85.2119 72.65 85.7386 72.65C86.2653 72.65 86.7353 72.7667 87.1486 73C87.5686 73.2267 87.8953 73.5467 88.1286 73.96C88.3686 74.3667 88.4886 74.83 88.4886 75.35C88.4886 75.87 88.3686 76.3367 88.1286 76.75C87.8953 77.1567 87.5686 77.4767 87.1486 77.71C86.7353 77.9433 86.2653 78.06 85.7386 78.06ZM85.7386 77.22C86.0786 77.22 86.3819 77.1433 86.6486 76.99C86.9219 76.83 87.1353 76.61 87.2886 76.33C87.4419 76.0433 87.5186 75.7167 87.5186 75.35C87.5186 74.9833 87.4419 74.66 87.2886 74.38C87.1353 74.0933 86.9219 73.8733 86.6486 73.72C86.3819 73.5667 86.0786 73.49 85.7386 73.49C85.3986 73.49 85.0919 73.5667 84.8186 73.72C84.5519 73.8733 84.3386 74.0933 84.1786 74.38C84.0253 74.66 83.9486 74.9833 83.9486 75.35C83.9486 75.7167 84.0253 76.0433 84.1786 76.33C84.3386 76.61 84.5519 76.83 84.8186 76.99C85.0919 77.1433 85.3986 77.22 85.7386 77.22Z" fill="#333333"/>
<path d="M40.51 76.25H36.79L36.02 78H34.99L38.16 71H39.15L42.33 78H41.28L40.51 76.25ZM40.16 75.45L38.65 72.02L37.14 75.45H40.16ZM48.1854 70.58V78H47.2654V77.16C47.0521 77.4533 46.7821 77.6767 46.4554 77.83C46.1287 77.9833 45.7687 78.06 45.3754 78.06C44.8621 78.06 44.4021 77.9467 43.9954 77.72C43.5887 77.4933 43.2687 77.1767 43.0354 76.77C42.8087 76.3567 42.6954 75.8833 42.6954 75.35C42.6954 74.8167 42.8087 74.3467 43.0354 73.94C43.2687 73.5333 43.5887 73.2167 43.9954 72.99C44.4021 72.7633 44.8621 72.65 45.3754 72.65C45.7554 72.65 46.1054 72.7233 46.4254 72.87C46.7454 73.01 47.0121 73.22 47.2254 73.5V70.58H48.1854ZM45.4554 77.22C45.7887 77.22 46.0921 77.1433 46.3654 76.99C46.6387 76.83 46.8521 76.61 47.0054 76.33C47.1587 76.0433 47.2354 75.7167 47.2354 75.35C47.2354 74.9833 47.1587 74.66 47.0054 74.38C46.8521 74.0933 46.6387 73.8733 46.3654 73.72C46.0921 73.5667 45.7887 73.49 45.4554 73.49C45.1154 73.49 44.8087 73.5667 44.5354 73.72C44.2687 73.8733 44.0554 74.0933 43.8954 74.38C43.7421 74.66 43.6654 74.9833 43.6654 75.35C43.6654 75.7167 43.7421 76.0433 43.8954 76.33C44.0554 76.61 44.2687 76.83 44.5354 76.99C44.8087 77.1433 45.1154 77.22 45.4554 77.22ZM55.0018 70.58V78H54.0818V77.16C53.8685 77.4533 53.5985 77.6767 53.2718 77.83C52.9451 77.9833 52.5851 78.06 52.1918 78.06C51.6785 78.06 51.2185 77.9467 50.8118 77.72C50.4051 77.4933 50.0851 77.1767 49.8518 76.77C49.6251 76.3567 49.5118 75.8833 49.5118 75.35C49.5118 74.8167 49.6251 74.3467 49.8518 73.94C50.0851 73.5333 50.4051 73.2167 50.8118 72.99C51.2185 72.7633 51.6785 72.65 52.1918 72.65C52.5718 72.65 52.9218 72.7233 53.2418 72.87C53.5618 73.01 53.8285 73.22 54.0418 73.5V70.58H55.0018ZM52.2718 77.22C52.6051 77.22 52.9085 77.1433 53.1818 76.99C53.4551 76.83 53.6685 76.61 53.8218 76.33C53.9751 76.0433 54.0518 75.7167 54.0518 75.35C54.0518 74.9833 53.9751 74.66 53.8218 74.38C53.6685 74.0933 53.4551 73.8733 53.1818 73.72C52.9085 73.5667 52.6051 73.49 52.2718 73.49C51.9318 73.49 51.6251 73.5667 51.3518 73.72C51.0851 73.8733 50.8718 74.0933 50.7118 74.38C50.5585 74.66 50.4818 74.9833 50.4818 75.35C50.4818 75.7167 50.5585 76.0433 50.7118 76.33C50.8718 76.61 51.0851 76.83 51.3518 76.99C51.6251 77.1433 51.9318 77.22 52.2718 77.22ZM62.3138 72.65C62.8271 72.65 63.2871 72.7633 63.6938 72.99C64.1004 73.2167 64.4171 73.5333 64.6438 73.94C64.8771 74.3467 64.9938 74.8167 64.9938 75.35C64.9938 75.8833 64.8771 76.3567 64.6438 76.77C64.4171 77.1767 64.1004 77.4933 63.6938 77.72C63.2871 77.9467 62.8271 78.06 62.3138 78.06C61.9338 78.06 61.5838 77.9867 61.2638 77.84C60.9504 77.6933 60.6838 77.48 60.4638 77.2V79.94H59.5038V72.7H60.4238V73.54C60.6371 73.2467 60.9071 73.0267 61.2337 72.88C61.5604 72.7267 61.9204 72.65 62.3138 72.65ZM62.2338 77.22C62.5738 77.22 62.8771 77.1433 63.1438 76.99C63.4171 76.83 63.6304 76.61 63.7838 76.33C63.9438 76.0433 64.0238 75.7167 64.0238 75.35C64.0238 74.9833 63.9438 74.66 63.7838 74.38C63.6304 74.0933 63.4171 73.8733 63.1438 73.72C62.8771 73.5667 62.5738 73.49 62.2338 73.49C61.9004 73.49 61.5971 73.57 61.3238 73.73C61.0571 73.8833 60.8438 74.1 60.6838 74.38C60.5304 74.66 60.4538 74.9833 60.4538 75.35C60.4538 75.7167 60.5304 76.0433 60.6838 76.33C60.8371 76.61 61.0504 76.83 61.3238 76.99C61.5971 77.1433 61.9004 77.22 62.2338 77.22ZM69.1502 72.65C69.8235 72.65 70.3568 72.8467 70.7502 73.24C71.1502 73.6267 71.3502 74.1967 71.3502 74.95V78H70.3902V75.06C70.3902 74.5467 70.2668 74.16 70.0202 73.9C69.7735 73.64 69.4202 73.51 68.9602 73.51C68.4402 73.51 68.0302 73.6633 67.7302 73.97C67.4302 74.27 67.2802 74.7033 67.2802 75.27V78H66.3202V70.58H67.2802V73.45C67.4802 73.1967 67.7402 73 68.0602 72.86C68.3868 72.72 68.7502 72.65 69.1502 72.65ZM75.4261 78.06C74.8994 78.06 74.4261 77.9433 74.0061 77.71C73.5861 77.4767 73.2561 77.1567 73.0161 76.75C72.7828 76.3367 72.6661 75.87 72.6661 75.35C72.6661 74.83 72.7828 74.3667 73.0161 73.96C73.2561 73.5467 73.5861 73.2267 74.0061 73C74.4261 72.7667 74.8994 72.65 75.4261 72.65C75.9528 72.65 76.4228 72.7667 76.8361 73C77.2561 73.2267 77.5828 73.5467 77.8161 73.96C78.0561 74.3667 78.1761 74.83 78.1761 75.35C78.1761 75.87 78.0561 76.3367 77.8161 76.75C77.5828 77.1567 77.2561 77.4767 76.8361 77.71C76.4228 77.9433 75.9528 78.06 75.4261 78.06ZM75.4261 77.22C75.7661 77.22 76.0694 77.1433 76.3361 76.99C76.6094 76.83 76.8228 76.61 76.9761 76.33C77.1294 76.0433 77.2061 75.7167 77.2061 75.35C77.2061 74.9833 77.1294 74.66 76.9761 74.38C76.8228 74.0933 76.6094 73.8733 76.3361 73.72C76.0694 73.5667 75.7661 73.49 75.4261 73.49C75.0861 73.49 74.7794 73.5667 74.5061 73.72C74.2394 73.8733 74.0261 74.0933 73.8661 74.38C73.7128 74.66 73.6361 74.9833 73.6361 75.35C73.6361 75.7167 73.7128 76.0433 73.8661 76.33C74.0261 76.61 74.2394 76.83 74.5061 76.99C74.7794 77.1433 75.0861 77.22 75.4261 77.22ZM82.4838 77.69C82.3438 77.81 82.1704 77.9033 81.9638 77.97C81.7571 78.03 81.5438 78.06 81.3238 78.06C80.7904 78.06 80.3771 77.9167 80.0838 77.63C79.7904 77.3433 79.6438 76.9333 79.6438 76.4V73.49H78.7438V72.7H79.6438V71.54H80.6038V72.7H82.1238V73.49H80.6038V76.36C80.6038 76.6467 80.6738 76.8667 80.8138 77.02C80.9604 77.1733 81.1671 77.25 81.4338 77.25C81.7271 77.25 81.9771 77.1667 82.1838 77L82.4838 77.69ZM85.7386 78.06C85.2119 78.06 84.7386 77.9433 84.3186 77.71C83.8986 77.4767 83.5686 77.1567 83.3286 76.75C83.0953 76.3367 82.9786 75.87 82.9786 75.35C82.9786 74.83 83.0953 74.3667 83.3286 73.96C83.5686 73.5467 83.8986 73.2267 84.3186 73C84.7386 72.7667 85.2119 72.65 85.7386 72.65C86.2653 72.65 86.7353 72.7667 87.1486 73C87.5686 73.2267 87.8953 73.5467 88.1286 73.96C88.3686 74.3667 88.4886 74.83 88.4886 75.35C88.4886 75.87 88.3686 76.3367 88.1286 76.75C87.8953 77.1567 87.5686 77.4767 87.1486 77.71C86.7353 77.9433 86.2653 78.06 85.7386 78.06ZM85.7386 77.22C86.0786 77.22 86.3819 77.1433 86.6486 76.99C86.9219 76.83 87.1353 76.61 87.2886 76.33C87.4419 76.0433 87.5186 75.7167 87.5186 75.35C87.5186 74.9833 87.4419 74.66 87.2886 74.38C87.1353 74.0933 86.9219 73.8733 86.6486 73.72C86.3819 73.5667 86.0786 73.49 85.7386 73.49C85.3986 73.49 85.0919 73.5667 84.8186 73.72C84.5519 73.8733 84.3386 74.0933 84.1786 74.38C84.0253 74.66 83.9486 74.9833 83.9486 75.35C83.9486 75.7167 84.0253 76.0433 84.1786 76.33C84.3386 76.61 84.5519 76.83 84.8186 76.99C85.0919 77.1433 85.3986 77.22 85.7386 77.22Z" fill="#797979"/>
</svg>
